<svg width="116" height="128" viewBox="0 0 116 128" fill="none" xmlns="http://www.w3.org/2000/svg">
<path d="M3.21582 45.4227C22.488 2.95945 94.3392 4.46188 113.42 46.1587" stroke="#1AD079" stroke-width="1.5" stroke-linecap="round" stroke-linejoin="round"/>
<path d="M6.1875 30.9993C17.6467 14.6008 37.3319 7.49717 57.7424 7.50055" stroke="#1AD079" stroke-width="1.5" stroke-linecap="round" stroke-linejoin="round"/>
<path d="M109.297 30.9993C97.8378 14.6008 78.1526 7.49717 57.7422 7.50055" stroke="#1AD079" stroke-width="1.5" stroke-linecap="round" stroke-linejoin="round"/>
<path d="M8.84277 20.776C20.5438 6.83879 38.8322 0.737882 57.7418 0.744635" stroke="#1AD079" stroke-width="1.5" stroke-linecap="round" stroke-linejoin="round"/>
<path d="M106.641 20.776C94.9403 6.83879 76.6518 0.737882 57.7422 0.744635" stroke="#1AD079" stroke-width="1.5" stroke-linecap="round" stroke-linejoin="round"/>
<path d="M11.8857 11.0355C23.5767 -0.568721 40.4012 -5.70064 57.7429 -5.69726" stroke="#1AD079" stroke-width="1.5" stroke-linecap="round" stroke-linejoin="round"/>
<path d="M103.603 11.0355C91.9084 -0.568721 75.0872 -5.70064 57.7422 -5.69726" stroke="#1AD079" stroke-width="1.5" stroke-linecap="round" stroke-linejoin="round"/>
<path d="M17.8818 -0.156899C28.9818 -8.18903 43.1775 -11.805 57.7424 -11.8016" stroke="#1AD079" stroke-width="1.5" stroke-linecap="round" stroke-linejoin="round"/>
<path d="M97.6028 -0.156899C86.5028 -8.18903 72.3071 -11.805 57.7422 -11.8016" stroke="#1AD079" stroke-width="1.5" stroke-linecap="round" stroke-linejoin="round"/>
<path d="M6.1875 84.2126C17.6467 100.611 37.3319 107.715 57.7424 107.711" stroke="#1AD079" stroke-width="1.5" stroke-linecap="round" stroke-linejoin="round"/>
<path d="M107.994 84.817C96.5351 101.216 78.1526 107.715 57.7422 107.711" stroke="#1AD079" stroke-width="1.5" stroke-linecap="round" stroke-linejoin="round"/>
<path d="M8.84277 94.4461C20.5438 108.383 38.8322 114.484 57.7418 114.481" stroke="#1AD079" stroke-width="1.5" stroke-linecap="round" stroke-linejoin="round"/>
<path d="M106.641 94.4461C94.9403 108.383 76.6518 114.484 57.7422 114.481" stroke="#1AD079" stroke-width="1.5" stroke-linecap="round" stroke-linejoin="round"/>
<path d="M11.8857 104.17C23.5767 115.777 40.4012 120.906 57.7429 120.902" stroke="#1AD079" stroke-width="1.5" stroke-linecap="round" stroke-linejoin="round"/>
<path d="M103.603 104.17C91.9084 115.784 75.0872 120.913 57.7422 120.909" stroke="#1AD079" stroke-width="1.5" stroke-linecap="round" stroke-linejoin="round"/>
<path d="M17.8818 115.355C28.9818 123.387 43.1775 127.003 57.7424 127" stroke="#1AD079" stroke-width="1.5" stroke-linecap="round" stroke-linejoin="round"/>
<path d="M97.6028 115.355C86.5028 123.387 72.3071 127.003 57.7422 127" stroke="#1AD079" stroke-width="1.5" stroke-linecap="round" stroke-linejoin="round"/>
<path d="M1.6709 55.7811C6.18677 53.0801 7.99313 47.6781 11.8845 42.276C15.7759 36.874 25.8451 20.3303 57.7416 20.3303" stroke="#1AD079" stroke-width="1.5" stroke-linecap="round" stroke-linejoin="round"/>
<path d="M113.813 55.7811C109.297 53.0801 107.491 47.6781 103.603 42.276C99.7147 36.874 89.6387 20.3303 57.7422 20.3303" stroke="#1AD079" stroke-width="1.5" stroke-linecap="round" stroke-linejoin="round"/>
<path d="M12.6416 81.8864C17.1877 87.7577 27.8613 101.361 57.7433 101.361" stroke="#1AD079" stroke-width="1.5" stroke-linecap="round" stroke-linejoin="round"/>
<path d="M102.844 81.8864C98.2978 87.7577 87.6242 101.361 57.7422 101.361" stroke="#1AD079" stroke-width="1.5" stroke-linecap="round" stroke-linejoin="round"/>
<path d="M21.1455 80.7655C26.8533 88.4161 38.1581 94.9458 57.7426 94.9458" stroke="#1AD079" stroke-width="1.5" stroke-linecap="round" stroke-linejoin="round"/>
<path d="M97.0253 78.7397C90.5755 86.8427 79.2304 94.9457 57.7422 94.9457" stroke="#1AD079" stroke-width="1.5" stroke-linecap="round" stroke-linejoin="round"/>
<path d="M32.2246 82.116C37.2609 86.6165 47.7935 88.1932 57.7418 88.1932" stroke="#1AD079" stroke-width="1.5" stroke-linecap="round" stroke-linejoin="round"/>
<path d="M91.8776 74.2357C83.054 85.6441 70.2081 88.1932 57.5166 88.1932" stroke="#1AD079" stroke-width="1.5" stroke-linecap="round" stroke-linejoin="round"/>
<path d="M1 64.5594C5.70054 62.8713 11.6602 55.2815 16.8509 48.0461C27.5245 33.1602 35.5825 26.7453 57.7422 26.7453" stroke="#1AD079" stroke-width="1.5" stroke-linecap="round" stroke-linejoin="round"/>
<path d="M114.484 64.5594C109.784 62.8713 103.824 55.2815 98.6335 48.0461C87.9599 33.1602 79.9019 26.7453 57.7422 26.7453" stroke="#1AD079" stroke-width="1.5" stroke-linecap="round" stroke-linejoin="round"/>
<path d="M1.6709 71.9872C24.8378 62.1961 21.9168 32.8226 58.2117 32.8226C64.534 32.8226 70.5974 35.3481 75.068 39.8437C79.5386 44.3392 82.0501 50.4364 82.0501 56.794C82.0501 63.1517 79.5386 69.2489 75.068 73.7444C70.5974 78.24 64.534 80.7655 58.2117 80.7655C34.2826 80.7655 26.6509 69.3571 3.48396 77.1225" stroke="#1AD079" stroke-width="1.5" stroke-linecap="round" stroke-linejoin="round"/>
<path d="M113.813 71.9871C99.006 65.7275 94.8561 51.473 84.3135 41.9958" stroke="#1AD079" stroke-width="1.5" stroke-linecap="round" stroke-linejoin="round"/>
<path d="M18.6669 68.3205C25.3182 68.3205 30.9051 69.8027 36.6767 71.3322C42.9083 72.9798 49.3514 74.6882 58.2119 74.6882C62.9314 74.6882 67.4576 72.8029 70.7948 69.4471C74.132 66.0913 76.0068 61.5398 76.0068 56.794C76.0068 52.0481 74.132 47.4967 70.7948 44.1409C67.4576 40.7851 62.9314 38.8998 58.2119 38.8998C41.4243 38.8998 33.5441 47.1345 26.0031 57.5638C23.4413 61.1055 20.715 64.8768 17.334 68.3408C17.7873 68.3273 18.2271 68.3205 18.6669 68.3205Z" stroke="#1AD079" stroke-width="1.5" stroke-linecap="round" stroke-linejoin="round"/>
<path d="M58.2116 68.611C50.1334 68.611 44.345 67.0781 38.2175 65.4541C35.3368 64.6911 32.4056 63.9146 29.3066 63.317C29.8506 62.5742 30.3788 61.8483 30.8914 61.1393C38.1772 51.0611 45.3288 44.9771 58.2116 44.9771C61.3283 44.9771 64.3173 46.2221 66.5211 48.4382C68.7249 50.6543 69.963 53.66 69.963 56.794C69.963 59.9281 68.7249 62.9338 66.5211 65.1499C64.3173 67.366 61.3283 68.611 58.2116 68.611Z" stroke="#1AD079" stroke-width="1.5" stroke-linecap="round" stroke-linejoin="round"/>
<path d="M58.2125 62.5336C50.9132 62.5336 45.746 61.1629 39.7461 59.576L39.6084 59.5423C41.7035 56.8986 48.0996 51.0543 58.199 51.0543C59.7128 51.0543 61.1646 51.659 62.2351 52.7354C63.3055 53.8118 63.9068 55.2717 63.9068 56.794C63.9068 58.3162 63.3055 59.7761 62.2351 60.8525C61.1646 61.9289 59.7128 62.5336 58.199 62.5336H58.2125Z" stroke="#1AD079" stroke-width="1.5" stroke-linecap="round" stroke-linejoin="round"/>
<path d="M113.42 78.2907C99.372 76.714 91.4281 59.3836 88.5205 55.7811C88.5205 55.7811 90.3671 65.9099 84.3135 72.6624" stroke="#1AD079" stroke-width="1.5" stroke-linecap="round" stroke-linejoin="round"/>
</svg>
