<svg width="89" height="32" viewBox="0 0 89 32" fill="none" xmlns="http://www.w3.org/2000/svg">
<path d="M3.67727 20.4372C1.22576 20.4372 0 19.6159 0 17.9735V12.2039C0 11.852 0.221723 11.676 0.665173 11.676C1.12535 11.676 1.35545 11.852 1.35545 12.2039V17.9358C1.35545 18.9162 2.15031 19.4064 3.74003 19.4064H8.9359C9.35426 19.4064 9.56343 19.5782 9.56343 19.9218C9.56343 20.2654 9.35426 20.4372 8.9359 20.4372H3.67727ZM11.4097 14.7933C11.4097 14.4413 11.6314 14.2654 12.0749 14.2654C12.5183 14.2654 12.7401 14.4413 12.7401 14.7933V19.9721C12.7401 20.324 12.5183 20.5 12.0749 20.5C11.6314 20.5 11.4097 20.324 11.4097 19.9721V14.7933ZM12.8028 12.7696C12.8028 13.1718 12.5602 13.3729 12.0749 13.3729C11.5896 13.3729 11.347 13.1718 11.347 12.7696C11.347 12.3673 11.5896 12.1662 12.0749 12.1662C12.5602 12.1662 12.8028 12.3673 12.8028 12.7696ZM16.4782 18.0237V19.9721C16.4782 20.324 16.2565 20.5 15.813 20.5C15.3696 20.5 15.1479 20.324 15.1479 19.9721V12.0154C15.1479 11.6718 15.3696 11.5 15.813 11.5C16.2565 11.5 16.4782 11.6718 16.4782 12.0154V16.5908L21.8247 14.4288C21.9502 14.3785 22.0548 14.3366 22.1385 14.3031C22.2221 14.2696 22.3142 14.257 22.4146 14.2654C22.6237 14.2654 22.7869 14.3114 22.9041 14.4036C23.0211 14.4874 23.0798 14.6131 23.0798 14.7807C23.0798 14.8981 23.0462 14.9944 22.9794 15.0698C22.9207 15.1453 22.812 15.2165 22.6531 15.2835L17.432 17.3073L22.6782 19.4944C22.8454 19.5698 22.9543 19.6494 23.0045 19.7332C23.0547 19.817 23.0798 19.9008 23.0798 19.9846C23.0798 20.3282 22.8454 20.5 22.377 20.5C22.2682 20.5 22.1761 20.4832 22.1008 20.4497C22.0255 20.4246 21.9126 20.3785 21.7619 20.3115L16.4782 18.0237ZM26.2815 17.7975V18.5642C26.2815 19.1592 26.8631 19.4567 28.026 19.4567H29.8835C30.3019 19.4567 30.511 19.6201 30.511 19.9469C30.511 20.2737 30.3019 20.4372 29.8835 20.4372H28.026C25.9845 20.4372 24.9637 19.817 24.9637 18.5768V16.1131C24.9637 14.9232 25.8756 14.3282 27.6997 14.3282H31.3268C33.1089 14.3282 34 14.8645 34 15.9372V17.345C34 17.6466 33.8075 17.7975 33.4227 17.7975H26.2815ZM26.2815 16.9302H32.5818C32.6488 16.9302 32.6822 16.9008 32.6822 16.8422V16.1885C32.6822 15.6103 32.197 15.3212 31.2264 15.3212H27.775C26.7792 15.3212 26.2815 15.6103 26.2815 16.1885V16.9302Z" fill="#1AD079"/>
<path d="M43.6853 20.4372C41.2284 20.4372 40 19.6327 40 18.0237V14.1145C40 12.5307 41.2075 11.7388 43.6225 11.7388H48.4398C48.8589 11.7388 49.0687 11.9106 49.0687 12.2542C49.0687 12.5978 48.8589 12.7696 48.4398 12.7696H43.6476C42.1214 12.7696 41.3584 13.2263 41.3584 14.1397V17.986C41.3584 18.933 42.1549 19.4064 43.7482 19.4064H48.4398C48.8589 19.4064 49.0687 19.5782 49.0687 19.9218C49.0687 20.2654 48.8589 20.4372 48.4398 20.4372H43.6853ZM51.2016 16.3268C51.2016 14.9944 52.2833 14.3282 54.4467 14.3282H55.4152C55.8429 14.3282 56.0567 14.5 56.0567 14.8436C56.0567 15.1872 55.8429 15.3589 55.4152 15.3589H54.3964C53.1554 15.3589 52.5349 15.6732 52.5349 16.3017V19.9721C52.5349 20.324 52.3127 20.5 51.8682 20.5C51.4237 20.5 51.2016 20.324 51.2016 19.9721V16.3268ZM59.1421 17.7975V18.5642C59.1421 19.1592 59.7247 19.4567 60.8905 19.4567H62.752C63.1711 19.4567 63.3809 19.6201 63.3809 19.9469C63.3809 20.2737 63.1711 20.4372 62.752 20.4372H60.8905C58.8443 20.4372 57.8214 19.817 57.8214 18.5768V16.1131C57.8214 14.9232 58.7354 14.3282 60.5634 14.3282H64.1985C65.9845 14.3282 66.8776 14.8645 66.8776 15.9372V17.345C66.8776 17.6466 66.6846 17.7975 66.299 17.7975H59.1421ZM59.1421 16.9302H65.4563C65.5232 16.9302 65.5569 16.9008 65.5569 16.8422V16.1885C65.5569 15.6103 65.0704 15.3212 64.0978 15.3212H60.6389C59.641 15.3212 59.1421 15.6103 59.1421 16.1885V16.9302ZM72.2086 20.4372C70.0452 20.4372 68.9635 19.7751 68.9635 18.4511V16.3268C68.9635 14.9944 70.0452 14.3282 72.2086 14.3282H76.6486V12.0279C76.6486 11.676 76.875 11.5 77.3279 11.5C77.7721 11.5 77.9945 11.676 77.9945 12.0279V18.4511C77.9945 19.7751 76.9128 20.4372 74.7494 20.4372H72.2086ZM74.7871 19.419C76.0281 19.419 76.6486 19.1006 76.6486 18.4637V15.3589H72.1709C70.9297 15.3589 70.3093 15.6774 70.3093 16.3142V18.4637C70.3093 19.1006 70.9297 19.419 72.1709 19.419H74.7871ZM80.4362 14.7933C80.4362 14.4413 80.6583 14.2654 81.1028 14.2654C81.5473 14.2654 81.7695 14.4413 81.7695 14.7933V19.9721C81.7695 20.324 81.5473 20.5 81.1028 20.5C80.6583 20.5 80.4362 20.324 80.4362 19.9721V14.7933ZM81.8323 12.7696C81.8323 13.1718 81.5891 13.3729 81.1028 13.3729C80.6166 13.3729 80.3733 13.1718 80.3733 12.7696C80.3733 12.3673 80.6166 12.1662 81.1028 12.1662C81.5891 12.1662 81.8323 12.3673 81.8323 12.7696ZM86.2077 15.3589V19.9721C86.2077 20.324 85.9896 20.5 85.5536 20.5C85.1008 20.5 84.8744 20.324 84.8744 19.9721V15.3589H84.3587C83.9477 15.3589 83.7424 15.1955 83.7424 14.8687C83.7424 14.5419 83.9477 14.3785 84.3587 14.3785H84.8744V13.2221C84.8744 12.8701 85.0923 12.6941 85.5285 12.6941C85.9813 12.6941 86.2077 12.8701 86.2077 13.2221V14.3785H88.3711C88.7902 14.3785 89 14.5419 89 14.8687C89 15.1955 88.7902 15.3589 88.3711 15.3589H86.2077Z" fill="#313132"/>
</svg>
