<svg width="172" height="48" viewBox="0 0 172 48" fill="none" xmlns="http://www.w3.org/2000/svg">
<path d="M7.35455 32.8743C2.45151 32.8743 0 31.2318 0 27.9469V16.4078C0 15.7039 0.443447 15.352 1.33035 15.352C2.25071 15.352 2.71089 15.7039 2.71089 16.4078V27.8715C2.71089 29.8324 4.30063 30.8128 7.48005 30.8128H17.8718C18.7085 30.8128 19.1269 31.1564 19.1269 31.8436C19.1269 32.5307 18.7085 32.8743 17.8718 32.8743H7.35455ZM22.8194 21.5866C22.8194 20.8827 23.2629 20.5307 24.1498 20.5307C25.0367 20.5307 25.4801 20.8827 25.4801 21.5866V31.9441C25.4801 32.648 25.0367 33 24.1498 33C23.2629 33 22.8194 32.648 22.8194 31.9441V21.5866ZM25.6056 17.5391C25.6056 18.3436 25.1204 18.7458 24.1498 18.7458C23.1792 18.7458 22.6939 18.3436 22.6939 17.5391C22.6939 16.7346 23.1792 16.3324 24.1498 16.3324C25.1204 16.3324 25.6056 16.7346 25.6056 17.5391ZM32.9564 28.0475V31.9441C32.9564 32.648 32.513 33 31.6261 33C30.7392 33 30.2957 32.648 30.2957 31.9441V16.0307C30.2957 15.3436 30.7392 15 31.6261 15C32.513 15 32.9564 15.3436 32.9564 16.0307V25.1816L43.6494 20.8575C43.9004 20.757 44.1096 20.6732 44.2769 20.6061C44.4442 20.5391 44.6284 20.514 44.8292 20.5307C45.2474 20.5307 45.5737 20.6229 45.8082 20.8073C46.0421 20.9748 46.1596 21.2262 46.1596 21.5615C46.1596 21.7961 46.0923 21.9888 45.9588 22.1397C45.8413 22.2905 45.6239 22.4329 45.3061 22.567L34.8641 26.6145L45.3563 30.9888C45.6907 31.1397 45.9086 31.2989 46.009 31.4665C46.1094 31.6341 46.1596 31.8017 46.1596 31.9693C46.1596 32.6564 45.6907 33 44.7539 33C44.5363 33 44.3522 32.9665 44.2016 32.8994C44.051 32.8492 43.8251 32.757 43.5239 32.6229L32.9564 28.0475ZM52.563 27.595V29.1285C52.563 30.3185 53.7261 30.9134 56.052 30.9134H59.7669C60.6038 30.9134 61.022 31.2402 61.022 31.8939C61.022 32.5475 60.6038 32.8743 59.7669 32.8743H56.052C51.9691 32.8743 49.9274 31.6341 49.9274 29.1536V24.2263C49.9274 21.8464 51.7512 20.6564 55.3994 20.6564H62.6535C66.2178 20.6564 68 21.729 68 23.8743V26.6899C68 27.2933 67.615 27.595 66.8454 27.595H52.563ZM52.563 25.8603H65.1636C65.2976 25.8603 65.3644 25.8017 65.3644 25.6844V24.3771C65.3644 23.2207 64.394 22.6425 62.4527 22.6425H55.55C53.5585 22.6425 52.563 23.2207 52.563 24.3771V25.8603Z" fill="#1AD079"/>
<path d="M81.3707 32.8743C76.4568 32.8743 74 31.2654 74 28.0475V20.2291C74 17.0615 76.415 15.4777 81.2449 15.4777H90.8797C91.7179 15.4777 92.1374 15.8212 92.1374 16.5084C92.1374 17.1955 91.7179 17.5391 90.8797 17.5391H81.2952C78.2428 17.5391 76.7168 18.4525 76.7168 20.2793V27.9721C76.7168 29.8659 78.3098 30.8128 81.4965 30.8128H90.8797C91.7179 30.8128 92.1374 31.1564 92.1374 31.8436C92.1374 32.5307 91.7179 32.8743 90.8797 32.8743H81.3707ZM96.4032 24.6536C96.4032 21.9888 98.5666 20.6564 102.893 20.6564H104.83C105.686 20.6564 106.113 21 106.113 21.6872C106.113 22.3743 105.686 22.7179 104.83 22.7179H102.793C100.311 22.7179 99.0697 23.3464 99.0697 24.6034V31.9441C99.0697 32.648 98.6254 33 97.7364 33C96.8475 33 96.4032 32.648 96.4032 31.9441V24.6536ZM112.284 27.595V29.1285C112.284 30.3185 113.449 30.9134 115.781 30.9134H119.504C120.342 30.9134 120.762 31.2402 120.762 31.8939C120.762 32.5475 120.342 32.8743 119.504 32.8743H115.781C111.689 32.8743 109.643 31.6341 109.643 29.1536V24.2263C109.643 21.8464 111.471 20.6564 115.127 20.6564H122.397C125.969 20.6564 127.755 21.729 127.755 23.8743V26.6899C127.755 27.2933 127.369 27.595 126.598 27.595H112.284ZM112.284 25.8603H124.913C125.046 25.8603 125.114 25.8017 125.114 25.6844V24.3771C125.114 23.2207 124.141 22.6425 122.196 22.6425H115.278C113.282 22.6425 112.284 23.2207 112.284 24.3771V25.8603ZM138.417 32.8743C134.09 32.8743 131.927 31.5503 131.927 28.9022V24.6536C131.927 21.9888 134.09 20.6564 138.417 20.6564H147.297V16.0559C147.297 15.352 147.75 15 148.656 15C149.544 15 149.989 15.352 149.989 16.0559V28.9022C149.989 31.5503 147.826 32.8743 143.499 32.8743H138.417ZM143.574 30.838C146.056 30.838 147.297 30.2011 147.297 28.9274V22.7179H138.342C135.859 22.7179 134.619 23.3548 134.619 24.6285V28.9274C134.619 30.2011 135.859 30.838 138.342 30.838H143.574ZM154.872 21.5866C154.872 20.8827 155.317 20.5307 156.206 20.5307C157.095 20.5307 157.539 20.8827 157.539 21.5866V31.9441C157.539 32.648 157.095 33 156.206 33C155.317 33 154.872 32.648 154.872 31.9441V21.5866ZM157.665 17.5391C157.665 18.3436 157.178 18.7458 156.206 18.7458C155.233 18.7458 154.747 18.3436 154.747 17.5391C154.747 16.7346 155.233 16.3324 156.206 16.3324C157.178 16.3324 157.665 16.7346 157.665 17.5391ZM166.415 22.7179V31.9441C166.415 32.648 165.979 33 165.107 33C164.202 33 163.749 32.648 163.749 31.9441V22.7179H162.717C161.895 22.7179 161.485 22.3911 161.485 21.7374C161.485 21.0838 161.895 20.757 162.717 20.757H163.749V18.4441C163.749 17.7402 164.185 17.3883 165.057 17.3883C165.963 17.3883 166.415 17.7402 166.415 18.4441V20.757H170.742C171.58 20.757 172 21.0838 172 21.7374C172 22.3911 171.58 22.7179 170.742 22.7179H166.415Z" fill="white"/>
</svg>
