<svg width="135" height="102" viewBox="0 0 135 102" fill="none" xmlns="http://www.w3.org/2000/svg">
<g id="Group 2087325895">
<path id="Vector" d="M3.59766 82.3763C26.1883 32.6015 110.411 34.3626 132.777 83.239" stroke="#1AD079" stroke-width="1.5" stroke-linecap="round" stroke-linejoin="round"/>
<path id="Vector_2" d="M7.08105 65.4694C20.5134 46.2473 43.5881 37.9205 67.5129 37.9244" stroke="#1AD079" stroke-width="1.5" stroke-linecap="round" stroke-linejoin="round"/>
<path id="Vector_3" d="M127.945 65.4694C114.512 46.2473 91.4375 37.9205 67.5127 37.9244" stroke="#1AD079" stroke-width="1.5" stroke-linecap="round" stroke-linejoin="round"/>
<path id="Vector_4" d="M10.1934 53.4858C23.9091 37.1488 45.3466 29.9974 67.5121 30.0053" stroke="#1AD079" stroke-width="1.5" stroke-linecap="round" stroke-linejoin="round"/>
<path id="Vector_5" d="M124.831 53.4858C111.116 37.1488 89.6783 29.9974 67.5127 30.0053" stroke="#1AD079" stroke-width="1.5" stroke-linecap="round" stroke-linejoin="round"/>
<path id="Vector_6" d="M13.7598 42.0681C27.4637 28.4658 47.1852 22.4503 67.5128 22.4542" stroke="#1AD079" stroke-width="1.5" stroke-linecap="round" stroke-linejoin="round"/>
<path id="Vector_7" d="M121.27 42.0681C107.562 28.4658 87.8442 22.4503 67.5127 22.4542" stroke="#1AD079" stroke-width="1.5" stroke-linecap="round" stroke-linejoin="round"/>
<path id="Vector_8" d="M20.7891 28.9486C33.8003 19.5334 50.4402 15.2948 67.5131 15.2988" stroke="#1AD079" stroke-width="1.5" stroke-linecap="round" stroke-linejoin="round"/>
<path id="Vector_9" d="M114.237 28.9486C101.225 19.5334 84.5855 15.2948 67.5127 15.2988" stroke="#1AD079" stroke-width="1.5" stroke-linecap="round" stroke-linejoin="round"/>
<path id="Vector_10" d="M29.2695 17.052C40.6829 11.2383 53.9578 8.56691 67.5122 8.57087" stroke="#1AD079" stroke-width="1.5" stroke-linecap="round" stroke-linejoin="round"/>
<path id="Vector_11" d="M105.755 17.052C94.342 11.2383 81.0671 8.56691 67.5127 8.57087" stroke="#1AD079" stroke-width="1.5" stroke-linecap="round" stroke-linejoin="round"/>
<path id="Vector_12" d="M1.78613 94.5182C7.07958 91.3522 9.19696 85.02 13.7584 78.6878C18.3198 72.3556 30.1228 52.9634 67.5114 52.9634" stroke="#1AD079" stroke-width="1.5" stroke-linecap="round" stroke-linejoin="round"/>
<path id="Vector_13" d="M133.238 94.5182C127.945 91.3522 125.827 85.02 121.27 78.6878C116.712 72.3556 104.901 52.9634 67.5127 52.9634" stroke="#1AD079" stroke-width="1.5" stroke-linecap="round" stroke-linejoin="round"/>
<path id="Vector_14" d="M1 104.808C6.5099 102.829 13.4957 93.9325 19.5802 85.4514C32.0916 68.0023 41.5372 60.4828 67.5124 60.4828" stroke="#1AD079" stroke-width="1.5" stroke-linecap="round" stroke-linejoin="round"/>
<path id="Vector_15" d="M134.025 104.808C128.515 102.829 121.529 93.9325 115.445 85.4514C102.934 68.0023 93.488 60.4828 67.5127 60.4828" stroke="#1AD079" stroke-width="1.5" stroke-linecap="round" stroke-linejoin="round"/>
<path id="Vector_16" d="M35.7676 6.26361C44.241 3.6318 53.2261 1 68.1816 1" stroke="#1AD079" stroke-width="1.5" stroke-linecap="round" stroke-linejoin="round"/>
<path id="Vector_17" d="M99.2568 6.26361C90.7833 3.6318 81.7982 1 66.8428 1" stroke="#1AD079" stroke-width="1.5" stroke-linecap="round" stroke-linejoin="round"/>
<path id="Vector_18" d="M1.78613 113.515C28.9421 102.038 25.5181 67.6065 68.0624 67.6065C75.4734 67.6065 82.5808 70.5669 87.8212 75.8365C93.0615 81.1061 96.0055 88.2532 96.0055 95.7055C96.0055 103.158 93.0615 110.305 87.8212 115.575C82.5808 120.844 75.4734 123.805 68.0624 123.805C40.0131 123.805 31.0673 110.432 3.91138 119.534" stroke="#1AD079" stroke-width="1.5" stroke-linecap="round" stroke-linejoin="round"/>
<path id="Vector_19" d="M133.238 113.515C115.882 106.177 111.017 89.4684 98.6592 78.3594" stroke="#1AD079" stroke-width="1.5" stroke-linecap="round" stroke-linejoin="round"/>
<path id="Vector_20" d="M21.7089 109.217C29.5055 109.217 36.0544 110.954 42.8197 112.747C50.1243 114.678 57.6768 116.681 68.063 116.681C73.5951 116.681 78.9007 114.471 82.8125 110.537C86.7243 106.604 88.9219 101.269 88.9219 95.7055C88.9219 90.1425 86.7243 84.8074 82.8125 80.8738C78.9007 76.9401 73.5951 74.7302 68.063 74.7302C48.3847 74.7302 39.1478 84.3828 30.3083 96.6079C27.3054 100.759 24.1097 105.18 20.1465 109.241C20.6778 109.225 21.1934 109.217 21.7089 109.217Z" stroke="#1AD079" stroke-width="1.5" stroke-linecap="round" stroke-linejoin="round"/>
<path id="Vector_21" d="M68.0626 109.557C58.5935 109.557 51.8084 107.76 44.6259 105.857C41.2491 104.962 37.8133 104.052 34.1807 103.352C34.8182 102.481 35.4374 101.63 36.0383 100.799C44.5786 88.9855 52.9616 81.8539 68.0626 81.8539C71.7159 81.8539 75.2196 83.3133 77.8029 85.9109C80.3861 88.5086 81.8374 92.0318 81.8374 95.7055C81.8374 99.3792 80.3861 102.902 77.8029 105.5C75.2196 108.098 71.7159 109.557 68.0626 109.557Z" stroke="#1AD079" stroke-width="1.5" stroke-linecap="round" stroke-linejoin="round"/>
<path id="Vector_22" d="M68.0633 102.433C59.5072 102.433 53.4502 100.827 46.4172 98.9665L46.2559 98.927C48.7117 95.8282 56.2091 88.9775 68.0475 88.9775C69.822 88.9775 71.5238 89.6864 72.7785 90.9481C74.0332 92.2098 74.7381 93.9211 74.7381 95.7055C74.7381 97.4898 74.0332 99.2011 72.7785 100.463C71.5238 101.725 69.822 102.433 68.0475 102.433H68.0633Z" stroke="#1AD079" stroke-width="1.5" stroke-linecap="round" stroke-linejoin="round"/>
<path id="Vector_23" d="M132.777 120.904C116.311 119.055 106.999 98.7411 103.591 94.5183C103.591 94.5183 105.755 106.391 98.6592 114.306" stroke="#1AD079" stroke-width="1.5" stroke-linecap="round" stroke-linejoin="round"/>
</g>
</svg>
